<svg width="142" height="129" viewBox="0 0 142 129" fill="none" xmlns="http://www.w3.org/2000/svg">
<path d="M67.2234 4.53145C58.1092 5.43853 46.8802 9.36924 40.8376 13.8039C39.2766 14.9629 39.2766 15.0133 40.3844 15.3157C41.039 15.4669 42.7007 15.6181 44.0603 15.6685C45.4702 15.6685 47.5851 15.87 48.844 16.0716C50.7071 16.3236 52.0163 16.0716 56.0951 14.711C61.2816 12.9976 68.9355 11.5866 73.266 11.5866C77.1936 11.5866 84.4447 12.8968 89.0773 14.3582C104.234 19.196 116.168 30.7866 121.959 46.207C122.613 48.0212 124.225 50.4905 126.239 52.859C128.001 54.9252 130.116 57.6464 130.972 58.9063L132.533 61.2244L132.181 57.4952C130.116 35.0196 113.751 14.6102 91.8972 7.3031C84.5958 4.83381 75.0787 3.77554 67.2234 4.53145Z" fill="#00943C"/>
<path d="M20.9979 35.4733C20.0411 36.9347 17.4227 43.0323 16.4156 46.1063C14.7036 51.5489 14.049 56.2355 13.9986 63.4922C13.9986 73.9741 15.761 81.6339 20.1922 90.4024C23.3142 96.5 25.9326 100.078 31.4213 105.621C41.5426 115.801 53.6277 121.546 67.9787 122.906C81.3731 124.217 95.7745 120.387 107.054 112.525C110.629 110.056 119.24 101.842 120.247 99.9772C120.801 98.9189 120.801 98.9189 117.931 99.5741C116.37 99.9772 113.952 100.28 112.643 100.28C110.478 100.28 109.874 100.532 107.356 102.698C97.2851 111.316 86.2575 115.398 73.0142 115.398C63.8497 115.398 57.4043 113.835 48.844 109.552C44.4128 107.335 41.3915 105.067 36.9099 100.683C24.5731 88.6386 19.0341 71.7567 21.9043 55.1772C22.9114 49.5331 24.2206 45.6528 26.9901 40.1599C28.1986 37.6906 29.2057 35.5741 29.2057 35.5237C29.2057 35.3221 27.0908 34.9189 23.8177 34.6166C22.0553 34.415 21.6021 34.5662 20.9979 35.4733Z" fill="#00943C"/>
<path d="M20.1419 22.9756C14.3511 23.4795 6.69717 24.2858 5.63972 24.5378C5.03547 24.689 4.53192 25.0921 4.53192 25.4449C4.53192 25.8984 7.40213 26.1 16.2645 26.352C30.0617 26.7047 41.1397 28.1662 53.0738 31.1898C62.7419 33.6591 68.8851 35.9268 77.7979 40.311C92.3 47.3662 102.018 55.3284 109.27 66.0118C114.607 73.8732 114.657 78.2575 109.471 80.4244C108.111 80.9788 102.018 81.1299 75.9851 81.1299C58.5121 81.1299 44.3121 81.3315 44.4128 81.5835C44.5135 81.7851 45.4702 84.3047 46.578 87.1268L48.5922 92.2166H82.1787C114.859 92.2166 115.866 92.1662 118.535 91.1583C123.923 89.1425 128.304 83.7504 129.16 78.0559C130.167 71.2024 124.98 61.8795 114.909 52.3551C98.8965 37.2874 76.2872 27.6118 48.5922 23.9331C42.8014 23.1772 24.8752 22.5725 20.1419 22.9756Z" fill="#0445A2"/>
<path d="M36.2553 60.3678C36.2553 60.5694 37.1114 62.9883 38.1688 65.7599L40.0319 70.7993L70.4461 70.9505L100.81 71.0513L99.1986 68.1788C98.2922 66.5662 96.6305 64.0969 95.5731 62.6355L93.5589 59.9647H64.9071C49.1461 59.9647 36.2553 60.1158 36.2553 60.3678Z" fill="#0445A2"/>
</svg>
