<svg width="414" height="414" viewBox="0 0 414 414" fill="none" xmlns="http://www.w3.org/2000/svg">
<g clip-path="url(#clip0_44_2)">
<path d="M0 206.667V413.333H206.667H413.333V206.667V1.91331e-05H206.667H0V206.667ZM224 84.6667V144H172.667H121.333V196.933V250L85.0667 286.267L48.6667 322.667L80.4 354.4C97.7333 371.733 112 386.533 112 387.067C112 387.6 92.6667 387.867 69.0667 387.733L26 387.333L25.6 208C25.4667 109.333 25.6 27.8667 26 26.9334C26.4 25.7334 47.6 25.3334 125.333 25.3334H224V84.6667ZM300.667 42.2667C291.2 51.4667 275.733 66.1334 266.4 74.9334L249.333 90.9334V58.1334V25.3334H283.733L318 25.4667L300.667 42.2667ZM387.733 206.4C388 350 387.733 386.933 386.4 387.333C385.467 387.733 334.4 387.867 272.933 387.733L161.2 387.333L267.867 283.067L374.533 178.667L330.4 135.067L286.4 91.3334L298.4 80C304.933 73.7334 320.533 58.9334 333.067 46.9334L355.867 25.2L371.6 25.6L387.333 26L387.733 206.4ZM294.667 135.333L338 178.667L296.133 219.6C273.067 242.267 253.2 261.467 251.733 262.4C249.467 264 249.333 263.6 249.333 252.133V240H198H146.667V204.667V169.333H198H249.333V130.667C249.333 109.333 249.733 92 250.4 92C250.933 92 270.8 111.467 294.667 135.333ZM248 265.867C248 266.133 223.067 290.8 192.533 320.8L137.2 375.2L111.2 349.2L85.3333 323.333L114.267 294.4L143.333 265.333H195.6C224.4 265.333 248 265.6 248 265.867Z" fill="#2E3192"/>
</g>
<defs>
<clipPath id="clip0_44_2">
<rect width="413.333" height="413.333" fill="white"/>
</clipPath>
</defs>
</svg>
