<svg width="137" height="137" viewBox="0 0 137 137" fill="none" xmlns="http://www.w3.org/2000/svg">
<path d="M64.7595 0.157995C45.8308 1.16326 28.2159 9.97073 15.97 24.5356C7.73367 34.3483 2.39892 46.3087 0.628289 58.9887C0.171352 62.233 0.0114234 64.7118 0 68.4016C0 74.5017 0.582595 79.4024 1.9991 85.1369C4.52368 95.3152 9.45861 104.877 16.4155 113.067C17.8434 114.758 21.0306 118.014 22.7212 119.521C33.2194 128.889 45.9908 134.726 59.7903 136.474C62.9546 136.874 64.154 136.942 68.5292 136.942C73.1786 136.942 74.6065 136.851 78.3534 136.303C102.514 132.807 122.985 116.62 132.101 93.8188C134.42 88.0042 135.882 81.9612 136.636 75.0272C136.876 72.7539 136.921 64.8604 136.693 62.6899C136.179 57.6522 135.471 53.871 134.317 49.8157C130.147 35.1823 121.374 22.5479 109.025 13.3749C103.999 9.63945 97.4534 6.1553 91.5474 4.05339C82.8771 0.980483 73.864 -0.333213 64.7595 0.157995ZM73.3842 10.7133C76.5256 10.9874 77.885 11.193 80.9922 11.867C86.3041 12.9979 91.8673 15.1113 96.7223 17.8415L98.3901 18.7782L97.9903 19.8863C91.4789 37.901 80.421 50.7981 64.8166 58.5546C59.6532 61.1249 53.9529 63.1126 48.1384 64.3463C44.5628 65.1002 43.3519 65.2716 40.7703 65.3744C39.4566 65.4201 38.3599 65.4544 38.3485 65.4429C38.3371 65.4429 38.2457 64.6547 38.1429 63.718C36.8977 52.1461 32.5796 41.0196 25.7142 31.6753C25.2801 31.0812 24.8688 30.5329 24.8231 30.4644C24.6861 30.293 27.1192 27.6771 29.1069 25.8607C38.9996 16.8134 51.1313 11.5814 64.4739 10.6219C66.0846 10.5076 71.6935 10.5647 73.3842 10.7133ZM109.951 27.9855C124.664 43.0873 130.01 64.4834 124.173 84.8285C121.877 92.7906 117.673 100.422 112.018 106.876L110.933 108.109L110.202 106.704C102.263 91.6255 90.942 80.3391 76.7541 73.3708C73.704 71.8629 69.5916 70.1837 67.2498 69.464C66.9756 69.384 66.7586 69.2926 66.77 69.2584C66.77 69.2241 67.9923 68.5958 69.4774 67.8647C78.3876 63.4667 85.79 57.7892 92.4156 50.2383C98.2301 43.6128 103.359 34.9995 106.798 26.112L107.118 25.2896L107.654 25.7351C107.94 25.975 108.98 26.9916 109.951 27.9855ZM19.0314 40.3342C21.6474 44.3553 23.955 49.1645 25.3829 53.6083C26.6966 57.6636 27.5533 61.9816 27.9303 66.3454C28.1017 68.3673 28.1017 73.4279 27.9303 75.3699C27.2106 83.5377 25.1773 91.0543 21.4418 99.3249C20.962 100.376 20.5393 101.244 20.5051 101.244C20.4708 101.244 19.991 100.536 19.4427 99.6676C14.3478 91.5912 11.4234 82.9208 10.601 73.4279C10.3611 70.6977 10.4296 64.7118 10.7266 62.233C11.6633 54.3051 13.9023 47.2454 17.6721 40.3799C17.9919 39.8088 18.2775 39.329 18.3118 39.329C18.346 39.329 18.6773 39.7859 19.0314 40.3342ZM46.7104 75.9982C60.0187 76.9806 71.9905 81.2872 81.7804 88.6097C88.623 93.7274 94.5518 100.467 99.2583 108.498C100.423 110.486 102.742 114.952 102.742 115.203C102.742 115.569 98.4243 118.368 95.3743 119.967C83.3683 126.296 69.3174 128.169 55.872 125.222C45.888 123.028 36.2123 117.934 28.7985 110.931L27.7932 109.983L29.0612 107.504C34.2703 97.2915 37.1719 87.6615 38.2685 76.9463L38.3371 76.2495L39.2052 76.1695C39.6964 76.1353 40.4504 76.0553 40.8845 76.0096C42.0611 75.8725 44.8827 75.8725 46.7104 75.9982Z" fill="#0965A5"/>
<path d="M65.1593 18.0357C64.9423 18.0585 64.1198 18.1385 63.3316 18.207C57.2543 18.7211 50.1489 20.9715 44.0031 24.3072C40.1192 26.4091 35.9039 29.3563 33.2651 31.7895L32.4883 32.4978L35.4812 35.5592L38.4742 38.6321L39.0453 38.0952C40.4961 36.7244 43.4891 34.5426 45.968 33.0461C51.9881 29.3906 58.5337 27.1859 64.908 26.6375C66.9071 26.4776 70.7111 26.5576 72.5846 26.8203C77.1882 27.4486 81.8261 28.9793 85.95 31.1955C86.6125 31.561 87.1837 31.858 87.2294 31.8809C87.2637 31.9037 87.6407 31.2869 88.0633 30.5101C88.486 29.7333 89.3999 28.1226 90.0739 26.9231C90.7593 25.7237 91.3419 24.6613 91.3761 24.5699C91.4332 24.4328 90.8735 24.1015 88.9544 23.142C83.037 20.1833 77.5766 18.6183 71.2709 18.0814C70.0143 17.9786 66.1189 17.9557 65.1593 18.0357Z" fill="#0965A5"/>
<path d="M105.655 35.1251C105.415 35.3993 104.09 36.7587 102.708 38.1523L100.195 40.6769L100.903 41.4651C101.726 42.3561 102.72 43.8069 103.131 44.7094C103.656 45.8403 103.656 45.8174 102 47.965C97.5561 53.7339 95.3743 56.3156 92.4727 59.2057C89.7539 61.9131 88.406 63.0097 84.4306 65.7513L81.3691 67.8647L83.0598 69.0413C89.3427 73.3822 91.4446 74.9244 94.8602 77.6431C98.4472 80.499 101.623 83.2749 104.479 86.0279C105.724 87.2503 106.055 87.6272 106.055 87.8671C106.055 88.5525 104.981 90.3346 103.622 91.8996L103.062 92.5507L104.821 94.2985C105.792 95.2581 107.14 96.6289 107.826 97.3257C108.5 98.034 109.071 98.6166 109.094 98.6166C109.219 98.6166 111.493 95.8178 112.121 94.8697C113.777 92.4022 114.497 90.4146 114.588 88.0956C114.68 85.9594 114.257 84.4172 113.115 82.7723C111.618 80.5904 102.685 72.6625 97.0078 68.4701L96.014 67.739L97.6247 66.1854C100.618 63.3067 103.371 60.1539 107.255 55.1504C108.386 53.6996 109.596 52.146 109.962 51.6891C110.853 50.5582 111.356 49.6329 111.721 48.4106C112.121 47.0397 112.144 45.1435 111.778 43.6241C111.139 40.9739 109.391 37.9924 106.923 35.3307C106.581 34.9538 106.249 34.6453 106.192 34.6453C106.135 34.6453 105.895 34.8624 105.655 35.1251Z" fill="#0965A5"/>
<path d="M39.9592 103.609C39.5365 104.168 38.337 105.665 37.3089 106.933C36.2808 108.212 35.4812 109.298 35.5269 109.355C36.2922 110.086 40.5646 112.782 42.9978 114.073C50.2174 117.899 58.5337 120.195 66.3702 120.538C75.1662 120.927 83.7109 119.007 91.7188 114.849C94.4376 113.433 95.34 112.884 95.26 112.679C95.2258 112.576 94.6889 111.674 94.072 110.668C93.4551 109.663 92.4956 108.075 91.9472 107.15C90.9877 105.516 90.942 105.471 90.7021 105.619C89.4684 106.43 86.2241 108.075 84.2935 108.875C74.458 112.976 63.5828 113.09 53.1875 109.218C48.7324 107.561 43.9802 105.059 41.2729 102.935C41.0444 102.763 40.8274 102.615 40.7931 102.615C40.7588 102.615 40.3818 103.06 39.9592 103.609Z" fill="#0965A5"/>
</svg>
