<svg width="260" height="43" viewBox="0 0 260 43" fill="none" xmlns="http://www.w3.org/2000/svg">
<path d="M22.2967 32.8158C21.656 32.9415 21.0153 33.0673 20.5027 33.4444C19.862 33.8216 19.3494 34.3246 18.965 34.8275L14.48 42.4971H50.2316L44.4652 32.8158H22.2967Z" fill="#8A5B0F"/>
<path d="M32.0355 29.7982C32.6762 30.1754 33.445 30.4269 34.0858 30.4269H43.0557L25.1158 0L19.3494 9.68129L30.3696 28.1637C30.7541 28.7924 31.2666 29.4211 32.0355 29.7982Z" fill="#8A5B0F"/>
<path d="M22.9374 21.7515C22.9374 20.9971 22.8093 20.2427 22.4248 19.614L17.9399 12.0702L0 42.4971H11.4046L22.1686 24.1404C22.8093 23.386 22.9374 22.6316 22.9374 21.7515Z" fill="#8A5B0F"/>
<path d="M79.1917 19.9912V1.88596H74.1942L70.6062 15.3392L67.0182 1.88596H62.0207V19.9912H65.3524C65.3524 19.3626 64.968 5.15497 64.968 5.15497L69.0685 19.9912H72.1439L76.1163 5.15497C76.1163 5.15497 75.7319 19.614 75.7319 19.9912H79.1917Z" fill="#8A5B0F"/>
<path d="M86.7521 17.8538L94.9532 8.17251V19.9912H98.413V1.88596H94.9532V3.89766L86.7521 13.5789V1.88596H83.2923V19.9912H86.7521V17.8538Z" fill="#8A5B0F"/>
<path d="M117.378 19.9912V1.88596H113.918V8.67544H105.973V1.88596H102.514V19.8655H105.973V11.693H113.918V19.9912H117.378Z" fill="#8A5B0F"/>
<path d="M136.215 19.9912V1.88596H121.607V19.8655H125.067V4.90351H132.755V19.9912H136.215Z" fill="#8A5B0F"/>
<path d="M147.491 1.88596H140.444V19.9912H143.775V13.8304H147.235C152.104 13.8304 154.027 11.1901 154.027 7.92105C154.027 4.14912 151.336 1.88596 147.491 1.88596ZM146.851 11.0643H143.775V4.77778H146.466C148.132 4.77778 150.567 4.90351 150.567 7.79532C150.567 9.93275 149.285 11.0643 146.851 11.0643Z" fill="#8A5B0F"/>
<path d="M164.662 1.38304C159.28 1.38304 155.821 5.6579 155.949 10.9386C155.949 15.9678 159.28 20.3684 164.662 20.3684C171.198 20.3684 173.504 14.962 173.504 10.8129C173.504 5.90936 170.301 1.38304 164.662 1.38304ZM164.662 17.2251C160.69 17.2251 159.409 13.5789 159.28 10.8129C159.28 6.91521 161.459 4.52632 164.534 4.52632C168.25 4.52632 169.916 7.79532 169.916 11.0643C169.916 15.2135 167.353 17.2251 164.662 17.2251Z" fill="#8A5B0F"/>
<path d="M185.421 15.3392L181.833 1.88596H176.836V19.9912H180.168C180.168 19.3626 179.783 5.15497 179.783 5.15497L183.756 19.9912H186.831L190.803 5.15497C190.803 5.15497 190.419 19.614 190.419 19.9912H194.007V1.88596H189.009L185.421 15.3392Z" fill="#8A5B0F"/>
<path d="M196.313 4.90351H201.311V19.8655H204.771V4.90351H209.896V1.88596H196.313V4.90351Z" fill="#8A5B0F"/>
<path d="M220.532 1.38304C215.278 1.38304 211.69 5.6579 211.819 10.9386C211.819 15.9678 215.15 20.3684 220.532 20.3684C227.068 20.3684 229.374 14.962 229.374 10.8129C229.374 5.90936 226.171 1.38304 220.532 1.38304ZM220.532 17.2251C216.688 17.2251 215.278 13.5789 215.278 10.8129C215.278 6.91521 217.457 4.52632 220.532 4.52632C224.248 4.52632 225.914 7.79532 225.914 11.0643C225.914 15.2135 223.223 17.2251 220.532 17.2251Z" fill="#8A5B0F"/>
<path d="M239.882 1.88596H232.706V19.9912H236.166V13.8304H239.625C244.495 13.8304 246.417 11.1901 246.417 7.92105C246.417 4.14912 243.726 1.88596 239.882 1.88596ZM239.241 11.0643H236.166V4.77778H238.857C240.522 4.77778 242.957 4.90351 242.957 7.79532C242.957 9.93275 241.676 11.0643 239.241 11.0643Z" fill="#8A5B0F"/>
<path d="M248.98 1.88596V19.8655H252.44V4.90351H260V1.88596H248.98Z" fill="#8A5B0F"/>
<path d="M69.1966 24.3918H62.1488V42.4971H65.6087V36.3363H69.0685C73.8098 36.3363 75.7319 33.6959 75.7319 30.4269C75.7319 26.655 73.0409 24.3918 69.1966 24.3918ZM68.5559 33.5702H65.4805V27.2836H68.1715C69.8374 27.2836 72.272 27.4094 72.272 30.3012C72.272 32.4386 70.9906 33.5702 68.5559 33.5702Z" fill="#8A5B0F"/>
<path d="M86.2395 23.8889C80.9857 23.8889 77.3977 28.1637 77.5259 33.4444C77.5259 38.4737 80.8576 42.8743 86.2395 42.8743C92.7748 42.8743 95.0813 37.4678 95.0813 33.3187C95.0813 28.4152 91.8778 23.8889 86.2395 23.8889ZM86.2395 39.731C82.3953 39.731 80.9857 36.2105 80.8576 33.3187C80.8576 29.4211 83.036 27.0322 86.1114 27.0322C89.8275 27.0322 91.4933 30.3012 91.4933 33.5702C91.4933 37.7193 88.9305 39.731 86.2395 39.731Z" fill="#8A5B0F"/>
<path d="M105.973 39.731C101.873 39.731 100.848 35.8333 100.848 33.3187C100.848 29.2953 103.026 27.0322 105.973 27.0322C108.024 27.0322 109.689 28.4152 109.946 30.4269L113.406 29.5468C112.637 27.0322 110.715 24.0146 105.973 24.0146C99.5663 24.0146 97.2597 29.2953 97.2597 33.3187C97.2597 40.1082 101.488 43 105.845 43C111.099 43 113.149 38.9766 113.79 37.4678L110.458 36.0848C109.946 37.9708 108.408 39.731 105.973 39.731Z" fill="#8A5B0F"/>
<path d="M124.426 39.731C120.325 39.731 119.3 35.8333 119.3 33.3187C119.3 29.2953 121.479 27.0322 124.426 27.0322C126.476 27.0322 128.142 28.4152 128.398 30.4269L131.858 29.5468C131.089 27.0322 129.167 24.0146 124.426 24.0146C118.019 24.0146 115.712 29.2953 115.712 33.3187C115.712 40.1082 119.941 43 124.298 43C129.551 43 131.602 38.9766 132.242 37.4678L128.911 36.0848C128.398 37.9708 126.861 39.731 124.426 39.731Z" fill="#8A5B0F"/>
<path d="M146.466 26.4035L138.265 36.0848V24.3918H134.805V42.4971H138.265V40.3596L146.466 30.6784V42.4971H149.926V24.3918H146.466V26.4035Z" fill="#8A5B0F"/>
<path d="M165.688 26.4035L157.486 36.0848V24.3918H154.027V42.4971H157.486V40.3596L165.688 30.6784V42.4971H169.147V24.3918H165.688V26.4035Z" fill="#8A5B0F"/>
</svg>
