<svg width="218" height="229" viewBox="0 0 218 229" fill="none" xmlns="http://www.w3.org/2000/svg">
<path d="M16.6464 129.555L10.3408 136.821L3.99071 129.494L2.31438 129.499L2.35878 146.583L6.9104 146.522L6.95481 138.86L10.3685 142.477L13.6823 138.922L13.7045 146.567L18.3894 146.522L18.3228 129.55L16.6464 129.555Z" fill="#8B939B"/>
<path d="M100.607 110.783L110.138 119.899L119.724 110.783L119.68 120.45L183.819 98.7475L128.033 98.9536L128.072 83.0288L110.188 100.057L92.2755 83.1124L92.2311 98.9369L36.5015 98.6193L100.546 120.411L100.607 110.783Z" fill="#8B939B"/>
<path d="M175.431 129.499L169.126 136.771L162.776 129.438L161.094 129.444L161.144 146.528L165.695 146.466L165.74 138.805L169.153 142.421L172.467 138.866L172.484 146.516L177.169 146.466L177.102 129.494L175.431 129.499Z" fill="#8B939B"/>
<path d="M26.3103 142.393L26.3325 139.557L31.3781 139.568L31.4003 135.902H26.3214L26.3325 133.372L31.961 133.411L31.9499 129.527L21.7476 129.516L21.7809 146.594L32.1497 146.567L32.1386 142.404L26.3103 142.393Z" fill="#8B939B"/>
<path d="M33.6151 133.383L37.5228 133.394L37.5117 146.511L41.9801 146.528L42.0023 133.316L45.6658 133.327L45.6991 129.505L33.6873 129.455L33.6151 133.383Z" fill="#8B939B"/>
<path d="M60.8138 135.857C60.6029 131.544 58.6657 130.118 54.7468 129.466L47.936 129.527V146.383H52.3766L52.4322 141.992L55.3796 141.953C61.4244 140.738 60.7583 136.264 60.7971 135.824M55.2464 138.181H52.4266L52.3433 133.355L54.9966 133.294C56.6285 133.779 57.3279 136.854 55.2908 138.181" fill="#8B939B"/>
<path d="M70.8052 129.265C58.9487 129.605 59.6093 146.957 70.8052 146.784C81.7124 146.277 81.6902 130.006 70.8052 129.265ZM70.683 142.638C65.7595 142.733 65.4709 133.6 70.683 133.417C75.4733 133.807 75.4789 142.376 70.683 142.638Z" fill="#8B939B"/>
<path d="M133.484 129.271C121.622 129.616 122.288 146.962 133.484 146.789C144.392 146.282 144.369 130.012 133.484 129.271ZM133.362 142.644C128.439 142.739 128.15 133.6 133.362 133.422C138.152 133.812 138.158 142.376 133.362 142.644Z" fill="#8B939B"/>
<path d="M92.2588 137.518C93.0804 137.189 93.9241 136.086 93.9241 133.985C93.7464 132.453 93.1914 130.268 89.6222 129.605L81.3627 129.477V146.489L90.1273 146.399C91.312 146.34 92.4337 145.846 93.2806 145.013C94.1275 144.179 94.6407 143.063 94.7234 141.875C94.727 140.993 94.4991 140.126 94.0625 139.361C93.6259 138.596 92.9961 137.96 92.2366 137.518M88.5787 133.294C90.2772 134.074 89.4557 136.136 88.5454 136.253L86.0364 136.214L85.992 133.261L88.5787 133.294ZM89.0116 142.7L86.0031 142.666L85.9532 139.713H89.0505C91.0765 140.499 90.1051 142.56 89.0116 142.677" fill="#8B939B"/>
<path d="M102.472 129.444L95.2562 146.483L100.108 146.55L101.073 144.321H106.386L107.379 146.505H112.275L104.965 129.449L102.472 129.444ZM102.289 141.067L103.804 136.086L105.27 141.067H102.289Z" fill="#8B939B"/>
<path d="M185.95 129.421L178.734 146.461L183.58 146.522L184.546 144.293H189.858L190.851 146.472H195.747L188.437 129.421H185.95ZM185.767 141.039L187.282 136.058L188.798 141.028L185.767 141.039Z" fill="#8B939B"/>
<path d="M123.954 129.577L113.751 129.555L113.785 146.461L118.381 146.45L118.347 133.327L123.981 133.3L123.954 129.577Z" fill="#8B939B"/>
<path d="M153.14 135.668L148.716 135.634L148.66 129.544H144.059L144.064 146.516L148.704 146.533L148.682 139.802H153.212L153.189 146.533L157.747 146.572L157.78 129.555L153.14 129.516V135.668Z" fill="#8B939B"/>
<path d="M217.995 129.55L213.276 129.538L213.299 142.399L209.913 142.365V129.544L205.383 129.566L205.328 142.41L201.947 142.393L202.036 129.538L197.262 129.522L197.218 146.461L218 146.494L217.995 129.55Z" fill="#8B939B"/>
</svg>
