<svg width="265" height="200" viewBox="0 0 265 200" fill="none" xmlns="http://www.w3.org/2000/svg">
<g clip-path="url(#clip0_44_8)">
<path d="M122.562 3.80949C122.96 5.90473 122.827 7.61902 122.165 7.61902C120.84 7.61902 3.84245 94.8571 2.25245 97.1428C1.58995 97.9047 10.9974 118.286 22.9224 142.095L44.9175 185.714L38.2925 186.286C31.9325 186.857 31.8 187.048 31.8 192.952V199.048H131.837H231.875V192.952C231.875 187.048 231.742 186.857 225.382 186.286L218.757 185.714L232.935 157.143C240.752 141.333 250.955 120.952 255.592 111.81C260.23 102.667 263.807 94.8571 263.542 94.4762C263.277 94.0952 235.85 74.2857 202.725 50.4762C169.6 26.6666 142.172 6.85711 141.907 6.47616C141.642 6.09521 142.172 4.5714 143.1 2.85711C144.557 0.380922 143.365 -3.0905e-05 133.295 -3.0905e-05C122.297 -3.0905e-05 121.767 0.190445 122.562 3.80949ZM193.847 53.5238C227.502 75.619 255.327 93.9047 255.592 94.2857C255.857 94.6666 244.992 112.381 231.477 133.714C218.095 155.048 205.375 175.238 203.387 178.476L199.81 184.762H132.5H65.19L49.555 161.333C24.7774 124.571 7.55245 97.1428 8.21495 96C8.74495 95.4285 130.645 14.0952 132.235 13.5238C132.5 13.3333 160.192 31.4285 193.847 53.5238Z" fill="#7B7B7B"/>
<path d="M113.287 58.4762C103.482 60.381 87.45 67.4286 79.1025 73.7143C70.8875 80 56.975 98.2857 56.975 103.048C56.975 104 69.2975 104.762 86.125 104.762C102.157 104.762 115.275 105.333 115.275 106.095C115.275 107.048 113.817 114.286 111.962 122.476L108.782 137.333L113.685 136.762C118.455 136.19 118.587 135.81 120.972 124.19L123.49 112.381H132.5H141.642L138.992 123.238C137.667 129.143 136.475 134.667 136.475 135.619C136.475 136.381 138.462 137.143 140.98 137.143C145.352 137.143 145.617 136.762 148.002 125.143L150.52 113.333L168.142 112.762L185.897 112.19L184.97 118.095C183.91 126.286 176.887 139.81 170.925 145.524C160.987 154.857 154.495 156.952 133.162 156.952C105.602 157.143 97.52 153.333 83.8725 134.667L78.3075 127.048L70.225 130.476C65.8525 132.381 62.275 134.476 62.275 135.238C62.275 138.857 74.2 151.619 82.68 157.143C98.05 167.238 110.24 170.476 133.825 170.476C158.735 170.286 170.395 167.048 187.62 155.238C213.192 137.524 221.407 111.429 207.892 90.4762C194.245 69.3333 166.155 56.7619 133.295 57.3333C124.55 57.5238 115.54 58.0952 113.287 58.4762ZM161.385 73.1429C173.442 77.9048 185.5 90.6667 185.5 98.8571C185.5 100.19 180.2 100.952 169.467 100.952H153.435L154.23 96.1905C155.025 91.8095 154.76 91.4286 150.387 91.4286C146.545 91.4286 145.617 92.1905 144.955 96.1905C144.16 100.762 143.63 100.952 135.017 100.952C129.982 100.952 125.875 100.381 125.875 99.8095C125.875 99.2381 126.537 97.1429 127.2 95.0476C128.525 91.6191 127.995 91.4286 107.987 91.4286C96.725 91.4286 87.45 90.6667 87.45 89.7143C87.45 87.4286 95.665 78.6667 100.302 76C110.637 69.9048 117.527 68.5714 135.812 69.5238C146.147 69.9048 157.41 71.6191 161.385 73.1429Z" fill="#7B7B7B"/>
</g>
<defs>
<clipPath id="clip0_44_8">
<rect width="265" height="200" fill="white"/>
</clipPath>
</defs>
</svg>
