<svg width="154" height="69" viewBox="0 0 154 69" fill="none" xmlns="http://www.w3.org/2000/svg">
<g clip-path="url(#clip0_108_137)">
<path d="M108.993 6.13338V8.64695H130.358C131.778 8.64695 133.92 8.64695 135.346 10.0817C136.773 11.522 136.773 13.6796 136.773 15.1198V36.696C136.773 38.1362 136.773 40.2939 135.346 41.7286C133.92 43.1689 131.778 43.1689 130.358 43.1689H120.055C118.276 43.1689 115.955 43.1689 115.066 41.192C114.182 39.2096 115.421 37.4134 116.498 35.9786L130.379 17.3048H109.015L100.447 28.8048C99.0155 30.7324 97.7792 32.4027 97.7792 34.5548C97.7792 36.7124 98.9287 38.2677 100.447 40.3048L102.584 43.1798C104.72 46.0548 106.856 48.9298 109.687 50.3536C112.539 51.7829 115.923 51.7829 120.532 51.7829H129.805C135.151 51.7829 143.144 51.7829 148.512 46.3943C153.848 41.0003 153.848 33.0872 153.848 30.2396V21.5872C153.848 18.7067 153.848 10.7991 148.512 5.43243C143.166 0.0329065 135.173 0.049335 129.805 0.0438588L115.055 0.0356445C113.64 0.0356445 111.851 0.0356444 110.425 1.47588C109.009 2.91612 109.009 4.71231 109.009 6.15255" fill="#DA4216"/>
<path d="M83.507 17.25H104.655L79.169 51.75H57.4789L83.507 17.25Z" fill="#DA4216"/>
<path d="M-2.64496e-06 23.3834C-2.64496e-06 21.9486 -2.6226e-06 20.147 1.42612 18.7067C2.84683 17.272 4.63627 17.272 6.05697 17.272H41.8457C46.4711 17.272 49.8711 17.272 52.6908 18.7067C55.5322 20.1524 57.6687 23.0274 59.7943 25.8805L61.9362 28.7555C63.4599 30.7981 64.6149 32.3534 64.6149 34.5055C64.6149 36.6631 63.3677 38.3334 61.9362 40.2555L53.3686 51.7555H32.0038L45.8855 33.0817C46.9537 31.6415 48.2063 29.8508 47.3116 27.8684C46.4277 25.897 44.1123 25.897 42.3337 25.897H25.5781V69.0493H8.49711V25.897H-0.0704956V23.3779" fill="#DA4216"/>
</g>
<defs>
<clipPath id="clip0_108_137">
<rect width="154" height="69" fill="white"/>
</clipPath>
</defs>
</svg>
