<svg width="150" height="137" viewBox="0 0 150 137" fill="none" xmlns="http://www.w3.org/2000/svg">
<path d="M13.7483 0.0422408L12.0187 0.100689V8.32721C12.0187 12.8423 12.0627 17.9419 12.1213 19.6369L12.2093 22.7346H40.893V61.8508C40.893 83.3596 40.8344 100.908 40.7757 100.821C39.6325 99.4765 37.4779 95.5751 36.8184 93.6756C36.4959 92.7404 36.0562 90.5632 35.6898 88.0938C35.4992 86.7787 35.4699 82.7897 35.4699 57.3649V28.141H25.2686L0 42.6799V52.2507H12.1653V65.7229C12.1653 82.4682 12.3119 85.8874 13.2792 92.1413C14.2759 98.6144 15.2286 101.771 17.5737 106.432C22.2786 115.783 30.2667 124.361 39.2368 129.665L40.8783 130.644L40.893 133.815V137H62.4388V135.495L67.0264 135.583C69.5328 135.641 72.8892 135.758 74.4575 135.86C78.4002 136.109 92.2071 136.109 94.9773 135.86C103.757 135.086 110.118 133.727 116.157 131.345C125.713 127.59 135.9 119.641 141.689 111.429C144.694 107.177 147.098 102.034 148.402 97.0802C149.604 92.4774 150.014 89.1605 150 83.9586C149.985 79.9257 149.809 77.8801 149.193 74.8262C148.886 73.3065 147.933 69.7412 147.728 69.3175C147.64 69.1713 147.742 68.5284 147.962 67.6079C149.223 62.5668 149.794 56.9996 149.501 52.9521C148.783 43.0452 145.485 32.2762 140.604 23.9035C137.424 18.4533 133.569 13.909 129.055 10.2998C123.998 6.23771 117.578 3.5345 109.927 2.21942C102.731 0.977405 95.373 0.568271 73.8712 0.232196C64.5787 0.0714647 17.0021 -0.0746548 13.7483 0.0422408ZM77.3156 23.0268C104.035 23.4944 110.147 24.3419 115.013 28.2141C120.642 32.6999 125.244 42.373 126.563 52.4407C126.842 54.6179 126.842 56.1667 126.563 58.3439C126.182 61.2371 125.654 63.2097 124.159 67.3741L123.265 69.8435L124.496 72.6344C126.68 77.5294 127.061 79.0344 127.179 83.2573C127.325 88.3861 126.622 91.7906 124.628 95.6774C123.529 97.8254 122.327 99.4765 120.334 101.537C116.728 105.277 111.378 108.887 107.143 110.45C103.508 111.794 99.477 112.613 93.922 113.124C90.5069 113.446 81.5222 113.446 75.0438 113.139C72.3469 113.007 68.4042 112.861 66.2936 112.803L62.4388 112.715V22.8807H65.7806C67.6127 22.8807 72.8013 22.9538 77.3156 23.0268Z" fill="#003DFF"/>
<path d="M97.469 50.921L98.1579 51.2279C99.4623 51.7978 100.005 52.5722 100.005 53.858C100.005 55.2754 98.8614 56.9119 97.5129 57.3941L97.0293 57.5695L96.9999 67.9878C96.9853 73.7157 96.9706 78.6837 96.956 79.0052C96.956 79.6043 96.9706 79.6189 97.6302 79.8089C98.6415 80.1011 99.6822 80.8609 100.093 81.6061C100.972 83.1988 100.093 84.9669 97.9087 85.9897C96.8241 86.5011 94.904 86.5157 93.6142 86.0043C92.5589 85.6098 91.4303 84.7039 90.7707 83.7541L90.287 83.0527V29.1639H68.8878L68.9758 55.3485C69.0198 70.3695 69.1224 82.1468 69.1956 82.9358C70.2803 93.5441 77.5648 102.735 87.4876 106.008C90.1405 106.885 91.7674 107.119 95.1239 107.119C98.6562 107.119 100.019 106.914 102.995 105.95C107.509 104.474 111.203 102.136 114.706 98.5268C116.787 96.3934 118.135 94.5377 119.22 92.3605C120.612 89.5258 121.36 86.7495 121.668 83.1988C122.049 78.6253 120.891 74.1102 118.384 70.3842C117.915 69.712 117.549 69.1129 117.549 69.0691C117.549 69.0252 117.754 68.6892 118.003 68.3239C118.692 67.301 119.821 65.0216 120.319 63.6042C121.975 58.9138 122.005 52.3968 120.393 46.6397C119.249 42.5776 116.963 38.384 114.544 35.9438C110.675 32.0278 104.959 29.5438 98.8028 29.0762L97.469 28.9739V50.921Z" fill="#003DFF"/>
</svg>
