<svg width="267" height="44" viewBox="0 0 267 44" fill="none" xmlns="http://www.w3.org/2000/svg">
<path fill-rule="evenodd" clip-rule="evenodd" d="M204.94 18.525L202.02 24.435H204.01L205.09 22.235H206.42L205.33 24.435H207.31L210.23 18.525H208.25L207.24 20.565H205.92L206.92 18.525H204.94Z" fill="white"/>
<path fill-rule="evenodd" clip-rule="evenodd" d="M210.79 18.525L211.31 21.035C210.74 21.155 210.03 21.825 209.5 22.485C208.93 23.185 208.41 23.845 207.87 24.435H209.81C210.08 24.175 210.42 23.725 210.93 23.085C211.36 22.545 211.78 22.185 212.16 22.185H212.27L211.16 24.435H213.07L214.18 22.185H214.29C214.63 22.185 214.71 22.555 214.61 23.085C214.49 23.705 214.38 24.165 214.4 24.435H216.37C216.41 23.845 216.55 23.185 216.67 22.485C216.79 21.845 216.74 21.155 216.28 21.035L219.28 18.525H217.12L215.02 20.805H214.86L215.99 18.525H214.08L212.95 20.805H212.79L212.94 18.525H210.78H210.79Z" fill="white"/>
<path fill-rule="evenodd" clip-rule="evenodd" d="M219.84 18.525L216.92 24.435H219.34C220.06 23.575 220.87 22.595 221.54 21.805C221.98 21.275 222.25 20.915 222.69 20.325H222.74C222.01 21.695 221.79 22.035 221.34 22.935L220.6 24.435H222.46L225.38 18.525H222.94L221.03 20.845C220.61 21.345 220.25 21.835 219.71 22.475H219.66C220.08 21.695 220.49 20.995 220.96 20.045L221.71 18.515H219.85L219.84 18.525Z" fill="white"/>
<path fill-rule="evenodd" clip-rule="evenodd" d="M226.59 18.525L223.68 24.435H225.66L226.74 22.235H228.07L226.98 24.435H228.97L231.89 18.525H229.9L228.89 20.565H227.57L228.58 18.525H226.59Z" fill="white"/>
<path fill-rule="evenodd" clip-rule="evenodd" d="M233.09 18.525L230.17 24.435H232.59C233.31 23.575 234.12 22.595 234.79 21.805C235.23 21.275 235.5 20.915 235.94 20.325H235.99C235.26 21.695 235.04 22.035 234.59 22.935L233.85 24.435H235.71L238.63 18.525H236.19L234.28 20.845C233.86 21.345 233.5 21.835 232.96 22.475H232.91C233.33 21.695 233.74 20.995 234.21 20.045L234.96 18.515H233.1L233.09 18.525Z" fill="white"/>
<path fill-rule="evenodd" clip-rule="evenodd" d="M240.54 21.125C240.59 21.025 240.63 20.935 240.7 20.845C240.97 20.425 241.48 20.085 241.87 20.085C242.49 20.085 242.51 20.675 242.1 21.515C241.68 22.365 241.04 22.925 240.45 22.925C240.06 22.925 239.92 22.605 240.03 22.215C240.06 22.105 240.11 21.985 240.18 21.855L240.54 21.125ZM235.75 26.815H237.73L239.12 24.005H239.14C239.19 24.305 239.53 24.565 240.14 24.565C241.31 24.565 243.09 23.565 244.15 21.405C245.1 19.485 244.54 18.385 243.43 18.385C242.68 18.385 241.93 18.685 241.24 19.275H241.22L241.51 18.515H239.8C239.55 19.065 239.24 19.745 238.85 20.535L235.75 26.805V26.815Z" fill="white"/>
<path fill-rule="evenodd" clip-rule="evenodd" d="M246.53 18.525L243.61 24.435H246.03C246.75 23.575 247.56 22.595 248.23 21.805C248.67 21.275 248.94 20.915 249.38 20.325H249.43C248.7 21.695 248.48 22.035 248.03 22.935L247.29 24.435H249.15L252.07 18.525H249.63L247.72 20.845C247.3 21.345 246.94 21.835 246.4 22.475H246.34C246.76 21.695 247.17 20.995 247.64 20.045L248.39 18.515H246.53V18.525Z" fill="white"/>
<path fill-rule="evenodd" clip-rule="evenodd" d="M253.28 18.525L250.36 24.435H252.34L253.43 22.235H254.75L253.67 24.435H255.65L258.57 18.525H256.59L255.58 20.565H254.25L255.26 18.525H253.28Z" fill="white"/>
<path fill-rule="evenodd" clip-rule="evenodd" d="M259.77 18.525L256.86 24.435H258.84L260.93 20.195H262.91L263.73 18.525H259.77Z" fill="white"/>
<path fill-rule="evenodd" clip-rule="evenodd" d="M201.32 14.575H265.87C266.56 14.575 266.85 15.135 266.51 15.825C266.17 16.515 265.33 17.075 264.63 17.075H200.08C199.39 17.075 199.1 16.515 199.44 15.825C199.78 15.135 200.62 14.575 201.32 14.575Z" fill="white"/>
<path fill-rule="evenodd" clip-rule="evenodd" d="M195.14 27.065H259.69C260.38 27.065 260.67 27.625 260.33 28.315C259.99 29.005 259.15 29.565 258.45 29.565H193.9C193.21 29.565 192.92 29.005 193.26 28.315C193.6 27.625 194.44 27.065 195.14 27.065Z" fill="white"/>
<path fill-rule="evenodd" clip-rule="evenodd" d="M242.71 38.545L241.66 40.665C241.49 41.015 241.06 41.295 240.71 41.295H234.51C234.16 41.295 234.01 41.015 234.19 40.665L235.23 38.545H229.08L228.04 40.665C227.87 41.015 227.44 41.295 227.09 41.295H220.89C220.54 41.295 220.39 41.015 220.57 40.665L221.61 38.545H215.46L214.42 40.665C214.25 41.015 213.82 41.295 213.47 41.295H207.27C206.92 41.295 206.77 41.015 206.95 40.665L207.99 38.545H201.84L200.8 40.665C200.63 41.015 200.2 41.295 199.85 41.295H193.65C193.3 41.295 193.15 41.015 193.33 40.665L194.37 38.545H189.59C188.85 38.545 188.54 37.945 188.9 37.205L190.86 33.235C191.22 32.495 192.13 31.895 192.87 31.895H261.22C262.63 31.895 263.17 32.615 263.27 33.235L263.9 36.855C264.01 37.465 262.69 38.545 261.95 38.545H256.35L255.31 40.665C255.14 41.015 254.71 41.295 254.36 41.295H248.16C247.81 41.295 247.66 41.015 247.84 40.665L248.88 38.545H242.71Z" fill="white"/>
<path fill-rule="evenodd" clip-rule="evenodd" d="M198.19 18.525L195.27 24.435H197.69C198.41 23.575 199.22 22.595 199.89 21.805C200.33 21.275 200.6 20.915 201.04 20.325H201.1C200.37 21.695 200.15 22.035 199.7 22.935L198.96 24.435H200.82L203.74 18.525H201.3L199.39 20.845C198.97 21.345 198.61 21.835 198.07 22.475H198.01C198.43 21.695 198.84 20.995 199.31 20.045L200.06 18.515H198.2L198.19 18.525Z" fill="white"/>
<path fill-rule="evenodd" clip-rule="evenodd" d="M146.63 5.46503L148.33 8.06503L152.6 5.46503H146.63ZM143.18 11.205L147.63 8.49503L145.86 5.78503L143.18 11.205ZM149.61 11.525L147.91 8.92503L143.64 11.525H149.61ZM153.06 5.78503L148.61 8.49503L150.38 11.205L153.06 5.78503ZM154.74 5.46503L156.44 8.06503L160.71 5.46503H154.74ZM151.3 11.205L155.75 8.49503L153.98 5.78503L151.31 11.205H151.3ZM157.72 11.525L156.02 8.92503L151.75 11.525H157.72ZM161.18 5.78503L156.72 8.50503L158.49 11.225L161.17 5.79503L161.18 5.78503ZM162.86 5.46503L164.56 8.06503L168.83 5.46503H162.86ZM159.42 11.205L163.86 8.49503L162.09 5.78503L159.42 11.195V11.205ZM165.84 11.525L164.14 8.92503L159.87 11.525H165.84ZM169.3 5.77503L164.84 8.49503L166.62 11.215L169.31 5.77503H169.3ZM170.97 5.46503L172.67 8.06503L176.94 5.46503H170.97ZM167.53 11.195L171.96 8.49503L170.19 5.79503L167.52 11.195H167.53ZM173.95 11.525L172.25 8.92503L167.98 11.525H173.95ZM177.42 5.77503L172.95 8.49503L174.73 11.215L177.42 5.77503ZM175.65 11.195L180.08 8.49503L178.32 5.79503L175.66 11.195H175.65ZM182.06 11.525L180.36 8.92503L176.09 11.525H182.06ZM185.54 5.77503L181.07 8.50503L182.85 11.235L185.54 5.78503V5.77503ZM179.08 5.46503L180.78 8.06503L185.05 5.46503H179.08ZM187.2 5.46503L188.9 8.06503L193.17 5.46503H187.2ZM183.77 11.195L188.19 8.50503L186.43 5.81503L183.77 11.205V11.195ZM190.18 11.525L188.48 8.92503L184.21 11.525H190.18ZM193.66 5.76503L189.18 8.49503L190.96 11.225L193.66 5.76503ZM195.31 5.46503L197.01 8.06503L201.28 5.46503H195.31ZM191.89 11.185L196.31 8.49503L194.55 5.80503L191.89 11.185ZM198.29 11.525L196.59 8.92503L192.32 11.525H198.29ZM201.78 5.76503L197.29 8.49503L199.08 11.225L201.78 5.75503V5.76503ZM203.42 5.46503L205.12 8.06503L209.39 5.46503H203.42ZM200.01 11.185L204.42 8.49503L202.66 5.80503L200.01 11.185ZM206.4 11.525L204.7 8.92503L200.43 11.525H206.4ZM209.9 5.76503L205.41 8.50503L207.2 11.245L209.9 5.77503V5.76503ZM211.54 5.46503L213.24 8.06503L217.51 5.46503H211.54ZM208.13 11.185L212.54 8.50503L210.79 5.82503L208.14 11.195L208.13 11.185ZM214.52 11.525L212.82 8.92503L208.55 11.525H214.52ZM218.02 5.75503L213.52 8.49503L215.31 11.235L218.02 5.75503ZM219.65 5.46503L221.35 8.06503L225.62 5.46503H219.65ZM216.25 11.175L220.65 8.49503L218.9 5.81503L216.25 11.175ZM222.63 11.525L220.93 8.92503L216.66 11.525H222.63ZM226.14 5.75503L221.64 8.49503L223.43 11.235L226.14 5.74503V5.75503ZM227.76 5.46503L229.46 8.06503L233.73 5.46503H227.76ZM224.37 11.175L228.76 8.49503L227.01 5.81503L224.37 11.165V11.175ZM230.74 11.525L229.04 8.92503L224.77 11.525H230.74ZM234.25 5.75503L229.74 8.50503L231.54 11.255L234.25 5.76503V5.75503ZM235.88 5.46503L237.58 8.06503L241.85 5.46503H235.88ZM232.49 11.175L236.88 8.50503L235.13 5.83503L232.49 11.185V11.175ZM238.86 11.525L237.16 8.92503L232.89 11.525H238.86ZM242.37 5.74503L237.86 8.49503L239.66 11.245L242.38 5.74503H242.37ZM240.61 11.165L244.99 8.49503L243.24 5.82503L240.6 11.165H240.61ZM246.97 11.525L245.27 8.92503L241 11.525H246.97ZM255.08 11.525L253.38 8.92503L249.11 11.525H255.08ZM249.29 5.87503L248.24 5.46503H243.99L245.69 8.06503L249.28 5.87503H249.29ZM250.24 6.25503L249.88 6.11503L245.97 8.49503L247.77 11.245L250.24 6.25503ZM252.12 7.00503L251 6.56503L248.73 11.165L253.1 8.49503L252.12 7.00503ZM140.28 15.065L133.45 28.895H136.52L142.08 17.625H146.93L141.37 28.895H144.44L151.27 15.065H140.27H140.28ZM155.82 17.445C156.07 17.385 156.52 17.345 157.12 17.345C158.68 17.345 159.17 18.105 158.54 19.375C157.85 20.775 156.43 21.615 154.79 21.615C154.33 21.615 154.03 21.595 153.8 21.535L155.82 17.455V17.445ZM150.16 28.895L152.61 23.925C152.86 23.985 153.22 24.005 153.62 24.005C155.44 24.005 157.23 23.535 158.77 22.545C159.97 21.785 160.97 20.635 161.64 19.265C162.31 17.915 162.31 16.765 161.76 16.085C161.23 15.325 160.05 14.955 158.15 14.955C156.25 14.955 154.88 15.075 153.84 15.245L147.1 28.895H150.16ZM165.89 26.635C163.83 26.635 163.6 24.605 164.89 21.995C166.17 19.405 168.39 17.315 170.52 17.315C172.65 17.315 172.74 19.445 171.51 21.935C170.17 24.645 168 26.635 165.91 26.635H165.89ZM164.54 29.115C168.52 29.115 172.56 26.385 174.81 21.825C176.7 18.005 175.98 14.825 171.8 14.825C167.62 14.825 163.64 17.925 161.59 22.065C159.64 26.005 160.5 29.105 164.52 29.105H164.54V29.115ZM184.99 28.895H187.98L194.08 15.065H190.04L186.33 19.665C185.11 21.205 183.74 23.035 182.58 24.635H182.5C183 23.015 183.44 21.285 183.79 19.685L184.74 15.065H180.64L172.94 28.895H175.79L178.65 23.645C179.58 21.925 180.72 19.785 181.7 17.915H181.74C181.18 19.745 180.66 21.695 180.31 23.315L179.12 28.675H181.53L185.85 23.275C187.18 21.655 188.72 19.685 190.03 17.915H190.07C189.07 19.945 188.14 21.935 187.38 23.595L184.99 28.895ZM130.87 31.505H188.87L186.59 36.125C185.62 38.085 183.21 39.685 181.24 39.685H130.42C128.44 39.685 127.62 38.085 128.59 36.125L130.87 31.505ZM248.68 4.56503L266.14 11.435L265.65 12.435L255.72 12.505L255.67 12.435H141.66C142.93 9.85503 144.26 7.17503 145.54 4.56503H248.68Z" fill="white"/>
<path fill-rule="evenodd" clip-rule="evenodd" d="M21.85 33.525H13.53C15.87 35.195 18.74 36.175 21.85 36.175C29.74 36.175 36.13 29.835 36.13 22.025C36.13 20.385 35.85 18.805 35.33 17.335H42.78C43.12 18.845 43.31 20.415 43.31 22.025C43.31 33.765 33.71 43.285 21.86 43.285C12.41 43.285 4.39 37.225 1.53 28.815H21.45C25.72 28.815 28.73 25.935 28.73 22.025C28.73 20.205 28.01 18.555 26.84 17.335H32.46C33.11 18.765 33.47 20.355 33.47 22.025C33.47 28.375 28.27 33.525 21.87 33.525" fill="white"/>
<path fill-rule="evenodd" clip-rule="evenodd" d="M21.85 0.75503C31.29 0.75503 39.31 6.80503 42.17 15.205H21.85C18.06 15.205 14.98 18.255 14.98 22.015C14.98 23.825 15.69 25.475 16.86 26.695H11.24C10.6 25.265 10.24 23.685 10.24 22.015C10.24 15.665 15.43 10.515 21.84 10.515L30.14 10.505C27.8 8.84503 24.94 7.86503 21.84 7.86503C13.95 7.86503 7.56 14.205 7.56 22.015C7.56 23.655 7.84 25.225 8.36 26.695H0.91C0.57 25.185 0.389999 23.625 0.389999 22.015C0.389999 10.275 9.99 0.75503 21.84 0.75503" fill="white"/>
<path d="M91.22 28.895L86.53 21.545L90.81 14.875H88.02L84.97 19.745L82 14.875H79.09L83.37 21.625L78.68 28.895H81.51L84.9 23.445L88.25 28.895H91.22ZM71.42 25.185L73.7 19.675L74.55 17.535V28.895H76.97V14.875H73.37L70.22 22.465L67.07 14.875H63.43V28.895H65.85V17.555L66.68 19.675L68.98 25.185H71.42ZM54.95 16.995V28.895H57.37V16.995H61.71V14.875H50.6V16.995H54.95Z" fill="white"/>
<path d="M114.51 7.73503H113.23V36.455H114.51V7.73503Z" fill="white"/>
</svg>
