<svg width="162" height="40" viewBox="0 0 162 40" fill="none" xmlns="http://www.w3.org/2000/svg">
<path fill-rule="evenodd" clip-rule="evenodd" d="M119.267 18.139L117.698 21.3041H118.767L119.348 20.1259H120.063L119.477 21.3041H120.541L122.11 18.139H121.046L120.503 19.2315H119.794L120.331 18.139H119.267Z" fill="#62C6F2"/>
<path fill-rule="evenodd" clip-rule="evenodd" d="M122.411 18.139L122.69 19.4832C122.384 19.5475 122.003 19.9063 121.718 20.2597C121.411 20.6346 121.132 20.9881 120.842 21.3041H121.884C122.029 21.1648 122.212 20.9238 122.486 20.5811C122.717 20.2919 122.943 20.0991 123.147 20.0991H123.206L122.61 21.3041H123.636L124.233 20.0991H124.292C124.475 20.0991 124.518 20.2972 124.464 20.5811C124.399 20.9131 124.34 21.1595 124.351 21.3041H125.41C125.431 20.9881 125.506 20.6346 125.571 20.2597C125.635 19.917 125.608 19.5475 125.361 19.4832L126.973 18.139H125.813L124.684 19.36H124.598L125.205 18.139H124.179L123.572 19.36H123.486L123.566 18.139H122.406H122.411Z" fill="#62C6F2"/>
<path fill-rule="evenodd" clip-rule="evenodd" d="M127.274 18.139L125.705 21.3041H127.006C127.393 20.8435 127.828 20.3187 128.188 19.8956C128.424 19.6117 128.569 19.4189 128.806 19.103H128.833C128.44 19.8367 128.322 20.0188 128.08 20.5007L127.683 21.3041H128.682L130.251 18.139H128.94L127.914 19.3815C127.688 19.6492 127.495 19.9116 127.204 20.2544H127.178C127.403 19.8367 127.624 19.4618 127.876 18.953L128.279 18.1336H127.28L127.274 18.139Z" fill="#62C6F2"/>
<path fill-rule="evenodd" clip-rule="evenodd" d="M130.902 18.139L129.338 21.3041H130.402L130.982 20.1259H131.697L131.111 21.3041H132.181L133.75 18.139H132.68L132.138 19.2315H131.428L131.971 18.139H130.902Z" fill="#62C6F2"/>
<path fill-rule="evenodd" clip-rule="evenodd" d="M134.395 18.139L132.825 21.3041H134.126C134.513 20.8435 134.948 20.3187 135.308 19.8956C135.545 19.6117 135.69 19.4189 135.926 19.103H135.953C135.561 19.8367 135.443 20.0188 135.201 20.5007L134.803 21.3041H135.803L137.372 18.139H136.061L135.034 19.3815C134.808 19.6492 134.615 19.9116 134.325 20.2544H134.298C134.524 19.8367 134.744 19.4618 134.997 18.953L135.4 18.1336H134.4L134.395 18.139Z" fill="#62C6F2"/>
<path fill-rule="evenodd" clip-rule="evenodd" d="M138.398 19.5314C138.425 19.4779 138.447 19.4296 138.484 19.3815C138.629 19.1565 138.903 18.9744 139.113 18.9744C139.446 18.9744 139.457 19.2904 139.236 19.7403C139.011 20.1955 138.667 20.4954 138.35 20.4954C138.14 20.4954 138.065 20.324 138.124 20.1152C138.14 20.0562 138.167 19.992 138.205 19.9224L138.398 19.5314ZM135.824 22.5787H136.888L137.635 21.0738H137.646C137.673 21.2344 137.855 21.3737 138.183 21.3737C138.812 21.3737 139.768 20.8381 140.338 19.6814C140.849 18.6531 140.548 18.064 139.951 18.064C139.548 18.064 139.145 18.2247 138.774 18.5406H138.764L138.919 18.1336H138C137.866 18.4282 137.7 18.7923 137.49 19.2154L135.824 22.5733V22.5787Z" fill="#62C6F2"/>
<path fill-rule="evenodd" clip-rule="evenodd" d="M141.617 18.139L140.048 21.3041H141.348C141.735 20.8435 142.171 20.3187 142.531 19.8956C142.767 19.6117 142.912 19.4189 143.149 19.103H143.176C142.783 19.8367 142.665 20.0188 142.423 20.5007L142.026 21.3041H143.025L144.594 18.139H143.283L142.257 19.3815C142.031 19.6492 141.837 19.9116 141.547 20.2544H141.52C141.746 19.8367 141.966 19.4618 142.219 18.953L142.622 18.1336H141.622L141.617 18.139Z" fill="#62C6F2"/>
<path fill-rule="evenodd" clip-rule="evenodd" d="M145.244 18.139L143.675 21.3041H144.739L145.325 20.1259H146.034L145.454 21.3041H146.518L148.087 18.139H147.023L146.48 19.2315H145.766L146.308 18.139H145.244Z" fill="#62C6F2"/>
<path fill-rule="evenodd" clip-rule="evenodd" d="M148.732 18.139L147.168 21.3041H148.232L149.355 19.0333H150.419L150.86 18.139H148.732Z" fill="#62C6F2"/>
<path fill-rule="evenodd" clip-rule="evenodd" d="M117.322 16.0236H152.01C152.381 16.0236 152.537 16.3235 152.354 16.693C152.171 17.0625 151.72 17.3624 151.344 17.3624H116.656C116.285 17.3624 116.129 17.0625 116.312 16.693C116.494 16.3235 116.946 16.0236 117.322 16.0236Z" fill="#62C6F2"/>
<path fill-rule="evenodd" clip-rule="evenodd" d="M114.001 22.7126H148.689C149.06 22.7126 149.216 23.0125 149.033 23.382C148.85 23.7515 148.399 24.0514 148.023 24.0514H113.335C112.964 24.0514 112.808 23.7515 112.991 23.382C113.173 23.0125 113.625 22.7126 114.001 22.7126Z" fill="#62C6F2"/>
<path fill-rule="evenodd" clip-rule="evenodd" d="M139.564 28.8606L139 29.996C138.909 30.1834 138.678 30.3334 138.49 30.3334H135.158C134.97 30.3334 134.889 30.1834 134.986 29.996L135.545 28.8606H132.24L131.681 29.996C131.589 30.1834 131.358 30.3334 131.17 30.3334H127.839C127.65 30.3334 127.57 30.1834 127.667 29.996L128.225 28.8606H124.921L124.362 29.996C124.27 30.1834 124.039 30.3334 123.851 30.3334H120.519C120.331 30.3334 120.251 30.1834 120.347 29.996L120.906 28.8606H117.601L117.042 29.996C116.951 30.1834 116.72 30.3334 116.532 30.3334H113.2C113.012 30.3334 112.932 30.1834 113.028 29.996L113.587 28.8606H111.018C110.621 28.8606 110.454 28.5393 110.648 28.143L111.701 26.0169C111.894 25.6206 112.383 25.2992 112.781 25.2992H149.511C150.269 25.2992 150.559 25.6848 150.613 26.0169L150.951 27.9556C151.011 28.2822 150.301 28.8606 149.904 28.8606H146.894L146.335 29.996C146.244 30.1834 146.013 30.3334 145.825 30.3334H142.493C142.305 30.3334 142.224 30.1834 142.321 29.996L142.88 28.8606H139.564Z" fill="#62C6F2"/>
<path fill-rule="evenodd" clip-rule="evenodd" d="M115.64 18.139L114.071 21.3041H115.371C115.758 20.8435 116.193 20.3187 116.553 19.8956C116.79 19.6117 116.935 19.4189 117.171 19.103H117.204C116.811 19.8367 116.693 20.0188 116.451 20.5007L116.054 21.3041H117.053L118.622 18.139H117.311L116.285 19.3815C116.059 19.6492 115.866 19.9116 115.575 20.2544H115.543C115.769 19.8367 115.989 19.4618 116.242 18.953L116.645 18.1336H115.645L115.64 18.139Z" fill="#62C6F2"/>
<path fill-rule="evenodd" clip-rule="evenodd" d="M87.9324 11.1447L88.8459 12.5372L91.1405 11.1447H87.9324ZM86.0784 14.2188L88.4697 12.7674L87.5186 11.3161L86.0784 14.2188ZM89.5338 14.3902L88.6202 12.9977L86.3256 14.3902H89.5338ZM91.3877 11.3161L88.9964 12.7674L89.9476 14.2188L91.3877 11.3161ZM92.2906 11.1447L93.2041 12.5372L95.4987 11.1447H92.2906ZM90.4419 14.2188L92.8333 12.7674L91.8821 11.3161L90.4473 14.2188H90.4419ZM93.892 14.3902L92.9784 12.9977L90.6838 14.3902H93.892ZM95.7513 11.3161L93.3546 12.7728L94.3057 14.2295L95.7459 11.3215L95.7513 11.3161ZM96.6541 11.1447L97.5677 12.5372L99.8623 11.1447H96.6541ZM94.8055 14.2188L97.1915 12.7674L96.2403 11.3161L94.8055 14.2134V14.2188ZM98.2555 14.3902L97.342 12.9977L95.0473 14.3902H98.2555ZM100.115 11.3108L97.7181 12.7674L98.6747 14.2241L100.12 11.3108H100.115ZM101.012 11.1447L101.926 12.5372L104.22 11.1447H101.012ZM99.1637 14.2134L101.544 12.7674L100.593 11.3215L99.1583 14.2134H99.1637ZM102.614 14.3902L101.7 12.9977L99.4055 14.3902H102.614ZM104.478 11.3108L102.076 12.7674L103.033 14.2241L104.478 11.3108ZM103.527 14.2134L105.908 12.7674L104.962 11.3215L103.533 14.2134H103.527ZM106.972 14.3902L106.058 12.9977L103.764 14.3902H106.972ZM108.842 11.3108L106.44 12.7728L107.396 14.2348L108.842 11.3161V11.3108ZM105.37 11.1447L106.284 12.5372L108.579 11.1447H105.37ZM109.734 11.1447L110.648 12.5372L112.942 11.1447H109.734ZM107.891 14.2134L110.266 12.7728L109.32 11.3322L107.891 14.2188V14.2134ZM111.335 14.3902L110.422 12.9977L108.127 14.3902H111.335ZM113.206 11.3054L110.798 12.7674L111.755 14.2295L113.206 11.3054ZM114.092 11.1447L115.006 12.5372L117.3 11.1447H114.092ZM112.254 14.2081L114.63 12.7674L113.684 11.3268L112.254 14.2081ZM115.694 14.3902L114.78 12.9977L112.485 14.3902H115.694ZM117.569 11.3054L115.156 12.7674L116.118 14.2295L117.569 11.3V11.3054ZM118.45 11.1447L119.364 12.5372L121.659 11.1447H118.45ZM116.618 14.2081L118.988 12.7674L118.042 11.3268L116.618 14.2081ZM120.052 14.3902L119.138 12.9977L116.844 14.3902H120.052ZM121.933 11.3054L119.52 12.7728L120.482 14.2402L121.933 11.3108V11.3054ZM122.814 11.1447L123.728 12.5372L126.022 11.1447H122.814ZM120.982 14.2081L123.351 12.7728L122.411 11.3375L120.987 14.2134L120.982 14.2081ZM124.415 14.3902L123.502 12.9977L121.207 14.3902H124.415ZM126.296 11.3L123.878 12.7674L124.84 14.2348L126.296 11.3ZM127.172 11.1447L128.086 12.5372L130.38 11.1447H127.172ZM125.345 14.2027L127.71 12.7674L126.769 11.3322L125.345 14.2027ZM128.774 14.3902L127.86 12.9977L125.565 14.3902H128.774ZM130.66 11.3L128.242 12.7674L129.204 14.2348L130.66 11.2947V11.3ZM131.53 11.1447L132.444 12.5372L134.739 11.1447H131.53ZM129.709 14.2027L132.068 12.7674L131.127 11.3322L129.709 14.1974V14.2027ZM133.132 14.3902L132.218 12.9977L129.924 14.3902H133.132ZM135.018 11.3L132.594 12.7728L133.562 14.2456L135.018 11.3054V11.3ZM135.894 11.1447L136.808 12.5372L139.102 11.1447H135.894ZM134.072 14.2027L136.431 12.7728L135.491 11.3429L134.072 14.2081V14.2027ZM137.495 14.3902L136.582 12.9977L134.287 14.3902H137.495ZM139.382 11.2947L136.958 12.7674L137.925 14.2402L139.387 11.2947H139.382ZM138.436 14.1974L140.79 12.7674L139.849 11.3375L138.43 14.1974H138.436ZM141.854 14.3902L140.94 12.9977L138.645 14.3902H141.854ZM146.212 14.3902L145.298 12.9977L143.004 14.3902H146.212ZM143.1 11.3643L142.536 11.1447H140.252L141.166 12.5372L143.095 11.3643H143.1ZM143.611 11.5678L143.417 11.4928L141.316 12.7674L142.283 14.2402L143.611 11.5678ZM144.621 11.9695L144.019 11.7338L142.799 14.1974L145.148 12.7674L144.621 11.9695ZM84.52 16.286L80.8496 23.6926H82.4994L85.4873 17.657H88.0936L85.1057 23.6926H86.7555L90.4258 16.286H84.5146H84.52ZM92.8709 17.5606C93.0053 17.5285 93.2471 17.507 93.5695 17.507C94.4078 17.507 94.6712 17.9141 94.3326 18.5942C93.9618 19.344 93.1987 19.7938 92.3174 19.7938C92.0702 19.7938 91.909 19.7831 91.7854 19.751L92.8709 17.5659V17.5606ZM89.8293 23.6926L91.1459 21.0309C91.2803 21.0631 91.4737 21.0738 91.6887 21.0738C92.6667 21.0738 93.6286 20.8221 94.4562 20.2919C95.1011 19.8849 95.6385 19.269 95.9985 18.5353C96.3586 17.8123 96.3586 17.1964 96.063 16.8322C95.7782 16.4252 95.1441 16.2271 94.123 16.2271C93.102 16.2271 92.3658 16.2913 91.8069 16.3824L88.1849 23.6926H89.8293ZM98.2824 22.4823C97.1754 22.4823 97.0518 21.3951 97.745 19.9973C98.4329 18.6103 99.6259 17.491 100.77 17.491C101.915 17.491 101.963 18.6317 101.302 19.9652C100.582 21.4165 99.4163 22.4823 98.2931 22.4823H98.2824ZM97.5569 23.8104C99.6957 23.8104 101.867 22.3484 103.076 19.9063C104.092 17.8605 103.705 16.1575 101.458 16.1575C99.2121 16.1575 97.0733 17.8177 95.9716 20.0348C94.9237 22.1449 95.3859 23.8051 97.5462 23.8051H97.5569V23.8104ZM108.546 23.6926H110.153L113.431 16.286H111.26L109.267 18.7495C108.611 19.5742 107.875 20.5543 107.251 21.4112H107.208C107.477 20.5436 107.713 19.6171 107.902 18.7602L108.412 16.286H106.209L102.071 23.6926H103.602L105.139 20.881C105.639 19.9598 106.252 18.8138 106.778 17.8123H106.8C106.499 18.7923 106.22 19.8367 106.031 20.7043L105.392 23.5748H106.687L109.009 20.6828C109.723 19.8152 110.551 18.7602 111.255 17.8123H111.276C110.739 18.8995 110.239 19.9652 109.831 20.8542L108.546 23.6926ZM79.4632 25.0904H110.631L109.406 27.5646C108.885 28.6143 107.59 29.4712 106.531 29.4712H79.2214C78.1573 29.4712 77.7167 28.6143 78.2379 27.5646L79.4632 25.0904ZM142.772 10.6627L152.155 14.342L151.892 14.8775L146.556 14.915L146.529 14.8775H85.2616C85.944 13.4958 86.6588 12.0605 87.3466 10.6627H142.772Z" fill="#0A539D"/>
<path fill-rule="evenodd" clip-rule="evenodd" d="M20.8775 26.1722H16.4065C17.6639 27.0665 19.2062 27.5914 20.8775 27.5914C25.1175 27.5914 28.5513 24.196 28.5513 20.0134C28.5513 19.1351 28.4009 18.2889 28.1214 17.5017H32.125C32.3077 18.3104 32.4098 19.1512 32.4098 20.0134C32.4098 26.3007 27.2509 31.3991 20.8829 31.3991C15.8046 31.3991 11.4948 28.1537 9.95783 23.6498H20.6625C22.9572 23.6498 24.5747 22.1074 24.5747 20.0134C24.5747 19.0387 24.1878 18.155 23.559 17.5017H26.5791C26.9284 18.2675 27.1219 19.119 27.1219 20.0134C27.1219 23.4141 24.3275 26.1722 20.8882 26.1722" fill="#0A539D"/>
<path fill-rule="evenodd" clip-rule="evenodd" d="M20.8775 8.62231C25.9504 8.62231 30.2602 11.8624 31.7971 16.361H20.8775C18.8408 16.361 17.1857 17.9944 17.1857 20.008C17.1857 20.9774 17.5672 21.861 18.1959 22.5144H15.1758C14.8319 21.7486 14.6385 20.9024 14.6385 20.008C14.6385 16.6073 17.4275 13.8493 20.8721 13.8493L25.3324 13.8439C24.0749 12.9549 22.538 12.4301 20.8721 12.4301C16.6322 12.4301 13.1983 15.8254 13.1983 20.008C13.1983 20.8863 13.3487 21.7271 13.6282 22.5144H9.62466C9.44194 21.7057 9.34521 20.8703 9.34521 20.008C9.34521 13.7207 14.5041 8.62231 20.8721 8.62231" fill="#62C6F2"/>
<path d="M58.1559 23.6926L55.6355 19.7563L57.9355 16.1842H56.4362L54.7972 18.7923L53.2012 16.1842H51.6374L53.9374 19.7992L51.4171 23.6926H52.9379L54.7596 20.7739L56.5598 23.6926H58.1559ZM47.5157 21.7057L48.7409 18.7549L49.1977 17.6088V23.6926H50.4981V16.1842H48.5636L46.8708 20.249L45.178 16.1842H43.222V23.6926H44.5224V17.6195L44.9685 18.7549L46.2044 21.7057H47.5157ZM38.6649 17.3196V23.6926H39.9654V17.3196H42.2976V16.1842H36.3273V17.3196H38.6649Z" fill="#0A539D"/>
<path d="M70.6716 12.3604H69.9837V27.7413H70.6716V12.3604Z" fill="#62C6F2"/>
</svg>
