<svg width="47" height="46" viewBox="0 0 47 46" fill="none" xmlns="http://www.w3.org/2000/svg">
<path d="M31.1667 40.25V36.4167C31.1667 34.3833 30.3589 32.4333 28.9212 30.9955C27.4834 29.5577 25.5333 28.75 23.5 28.75H12C9.96668 28.75 8.01664 29.5577 6.57886 30.9955C5.14108 32.4333 4.33334 34.3833 4.33334 36.4167V40.25" stroke="black" stroke-width="3" stroke-linecap="round" stroke-linejoin="round"/>
<path d="M17.75 21.0833C21.9842 21.0833 25.4167 17.6508 25.4167 13.4167C25.4167 9.18248 21.9842 5.75 17.75 5.75C13.5158 5.75 10.0833 9.18248 10.0833 13.4167C10.0833 17.6508 13.5158 21.0833 17.75 21.0833Z" stroke="black" stroke-width="3" stroke-linecap="round" stroke-linejoin="round"/>
<path d="M42.6667 40.25V36.4166C42.6654 34.718 42.1 33.0678 41.0593 31.7252C40.0185 30.3827 38.5614 29.4238 36.9167 28.9991" stroke="black" stroke-width="3" stroke-linecap="round" stroke-linejoin="round"/>
<path d="M31.1667 5.99915C32.8158 6.42139 34.2775 7.38049 35.3213 8.72524C36.3651 10.07 36.9317 11.7239 36.9317 13.4262C36.9317 15.1286 36.3651 16.7825 35.3213 18.1272C34.2775 19.472 32.8158 20.4311 31.1667 20.8533" stroke="black" stroke-width="3" stroke-linecap="round" stroke-linejoin="round"/>
</svg>
